<svg id="yt" viewBox="0 0 28 28" xmlns="http://www.w3.org/2000/svg"><path d="m17.592 13.887-5.236-3.49a.654.654 0 0 0-1.015.545v6.982a.654.654 0 0 0 1.014.545l5.237-3.49a.654.654 0 0 0 0-1.092Zm-4.942 2.815v-4.538l3.404 2.269-3.404 2.269Zm12.48-8.564a2.4 2.4 0 0 0-1.45-1.636c-3.72-1.43-9.688-1.407-9.939-1.407-.25 0-6.218-.022-9.938 1.407a2.4 2.4 0 0 0-1.451 1.636c-.284 1.07-.611 3.033-.611 6.295s.327 5.225.61 6.294a2.4 2.4 0 0 0 1.452 1.637c3.72 1.429 9.687 1.407 9.938 1.407h.076c.753 0 6.317-.044 9.862-1.407a2.4 2.4 0 0 0 1.451-1.637c.284-1.069.611-3.032.611-6.294 0-3.262-.327-5.226-.61-6.295ZM23.865 20.4a1.091 1.091 0 0 1-.655.742c-3.49 1.342-9.404 1.32-9.469 1.32-.066 0-5.978.022-9.47-1.32a1.091 1.091 0 0 1-.654-.742c-.261-1.004-.567-2.847-.567-5.967 0-3.12.306-4.964.567-5.968a1.09 1.09 0 0 1 .655-.741c3.49-1.342 9.404-1.32 9.469-1.32.065 0 5.978-.022 9.47 1.32a1.092 1.092 0 0 1 .654.741c.261 1.004.567 2.848.567 5.968s-.306 4.963-.567 5.967Z"/></svg>
