<svg xmlns="http://www.w3.org/2000/svg"><style>:root{visibility:hidden}:target{visibility:visible}</style><svg id="big-arrow" viewBox="0 0 50 26"><path d="M0 11h42.3l-8.1-8.2L37 0l13 13-13 13-2.8-2.8 8.1-8.2H0v-4Z"></path></svg><svg viewBox="0 0 40 40" id="burger"><path d="M30 13H10v2h20v-2Zm0 6H10v2h20v-2Zm0 6H10v2h20v-2Z" fill="#231F20"></path></svg><svg id="camera" viewBox="0 0 32 32"><path d="m26 15 6-4v16l-6-4v-8Zm-2 0v8c0 2.2-1.8 4-4 4H4c-2.2 0-4-1.8-4-4v-8c0-2.2 1.8-4 4-4h10c0-1.1.9-2 2-2V7H5c-.6 0-1-.4-1-1s.4-1 1-1h12c.6 0 1 .4 1 1v3a2 2 0 0 1 2 2c2.2 0 4 1.8 4 4Zm-12 0H4v8h8v-8Zm8 1c0-.6-.4-1-1-1h-4c-.6 0-1 .4-1 1s.4 1 1 1h4c.6 0 1-.4 1-1Z"></path></svg><svg id="cart" viewBox="0 0 22 22"><path d="M20.688 8.857h-3.55l-3.45-6.476c-.203-.381-.608-.476-1.014-.286s-.507.572-.304.953l3.145 5.81H6.283l3.145-5.81c.202-.381 0-.762-.305-.953-.406-.19-.811 0-1.014.286l-3.45 6.476H1.312c-.406 0-.812.286-.812.762 0 .381.304.762.812.762h.202l.914 2.857c-.203.095-.305.286-.305.572 0 .38.305.666.71.666L4.558 20h12.884l1.725-5.524c.405 0 .71-.286.71-.667 0-.19-.102-.476-.304-.57l.912-2.858h.203c.406 0 .812-.286.812-.762 0-.476-.406-.762-.812-.762Zm-4.565 9.62H5.573L4.354 14.38h13.087l-1.319 4.095Zm1.623-5.525H3.848l-.812-2.666h15.522l-.812 2.666Z"></path></svg><svg id="checkbox-checked" viewBox="0 0 38 38"><path d="m30.963 12.684-.994-.992-14.204 14.094-7.03-7.011-.994.991 7.03 7.012.994.991 1.066-.991 14.132-14.094Z"></path>
</svg><svg viewBox="0 0 40 40" id="cross"><path d="M31 11.37 29.57 10l-9.02 8.59L11.43 10 10 11.37l9.01 8.68L10 28.63 11.43 30l9.12-8.59L29.57 30 31 28.63l-9.01-8.58L31 11.37Z"></path></svg><svg id="flag" viewBox="0 0 82 82"><path d="M25.2661 4.36658V42.9333L64.5 23.6004 25.2661 4.36658ZM17.5 81.5V.5h3.8326v81H17.5Z" fill="#63D1BB"></path><path d="M21.3326.5996H17.5v81h3.8326v-81Z" fill="#231F20"></path></svg><svg id="flower" viewBox="0 0 56 56"><path d="M28 47c9.075 0 16.5-7.355 16.5-16.344C35.425 30.656 28 37.909 28 47ZM16.244 25.65c0 2.554 2.062 4.495 4.537 4.495.928 0 1.857-.306 2.578-.817v.306c0 2.554 2.063 4.495 4.538 4.495 2.578 0 4.537-2.043 4.537-4.495v-.306c.722.51 1.65.817 2.579.817 2.578 0 4.537-2.043 4.537-4.494 0-1.84-1.031-3.371-2.578-4.087 1.547-.715 2.578-2.247 2.578-4.085 0-2.554-2.063-4.495-4.537-4.495-.929 0-1.857.306-2.579.817v-.306C32.434 10.94 30.372 9 27.897 9c-2.578 0-4.538 2.043-4.538 4.495v.306a4.542 4.542 0 0 0-2.578-.817c-2.578 0-4.537 2.043-4.537 4.495 0 1.838 1.031 3.37 2.578 4.085-1.444.716-2.578 2.248-2.578 4.087ZM28 16.968c2.578 0 4.538 2.043 4.538 4.494 0 2.554-2.063 4.495-4.538 4.495-2.578 0-4.538-2.043-4.538-4.495 0-2.451 1.96-4.494 4.538-4.494ZM11.5 30.656C11.5 39.646 18.925 47 28 47c0-9.091-7.425-16.344-16.5-16.344Z"></path></svg><svg id="giftbox" viewBox="0 0 56 56"><path d="M14.527 44h12.615V30.272H14.528V44Zm28.358-23.309h-7.367c.505-.296 1.01-.493 1.413-.79 1.615-1.086 2.422-2.568 2.422-3.95 0-1.186-.605-2.173-1.413-2.865-.807-.69-1.917-1.086-3.027-1.086-1.211 0-2.422.395-3.33 1.086-1.514.988-2.624 2.47-3.432 4.05 0 .099-.1.197-.1.197-.303-.592-.606-1.185-1.01-1.777-.706-.988-1.514-1.877-2.523-2.47C23.51 12.494 22.4 12 21.188 12c-1.21 0-2.321.494-3.23 1.284-.807.79-1.412 1.877-1.412 3.062 0 .691.202 1.481.605 2.172.606.89 1.413 1.58 2.624 2.173h-6.66c-.909 0-1.615.692-1.615 1.58V28.1h15.541V20.69h1.918V28.1H44.5v-5.827c0-.89-.706-1.58-1.615-1.58ZM20.381 18.42c-.606-.395-1.01-.79-1.211-1.087-.202-.395-.303-.691-.303-.987 0-.494.202-.988.706-1.482.404-.395 1.01-.691 1.615-.691.707 0 1.413.197 2.018.691a7.6 7.6 0 0 1 2.624 3.16c.303.692.606 1.383.808 2.075-3.129-.297-5.147-.988-6.257-1.68Zm10.596-1.58c.606-.79 1.211-1.482 1.918-1.877.706-.494 1.412-.691 2.018-.691.605 0 1.11.197 1.514.493.403.297.605.692.605 1.186 0 .493-.303 1.284-1.514 2.074-1.11.79-3.128 1.679-6.156 2.271a10.88 10.88 0 0 1 1.615-3.456ZM28.96 44h12.614V30.272H28.96V44Z"></path></svg><svg id="heart" viewBox="0 0 56 56"><path d="M45 22.95c0-4.662-4.018-8.45-8.964-8.45A9.248 9.248 0 0 0 28 19.162c-1.442-2.72-4.533-4.662-8.036-4.662-4.946 0-8.964 3.788-8.964 8.45 0 8.838 15.145 18.55 17 18.55 1.958 0 17-9.615 17-18.55Z"></path></svg><svg id="htmlacademy" viewBox="0 0 36 36"><path d="M18.1 1H18L4.5 2.4v24.7l13.5 8 13.4-8V2.4L18.1 1Zm11.4 12.1L18 6.3v-.1h-.1l-.1-.1v.1L6.4 13.1v-9l11.5-1.2 11.6 1.2v9ZM17.9 7.8l11.5 6.7-4.5 2.6-7.1-4.2v1.4l5.9 3.5-.9.5-5-3v1.4l3.8 2.3-.8.5-3-1.8v1.4l1.9 1.1-1.8 1.1-11.4-6.7 11.4-6.8ZM6.4 16.1l11.4 6.8v1l-7.9-4.7v1.4l8 4.8v1.1l-8-4.7v1.4l8 4.8 8.1-4.9v-5.2l3.4-2v10l-11.5 6.9L6.4 26v-9.9Z"></path></svg><svg id="lamp" viewBox="0 0 62 62"><path d="M26.003 37.756c-.306.994-.204 2.186 0 3.577.51 2.584 1.733 5.962 2.447 9.638h5.202c.714-3.577 1.938-6.955 2.55-9.638.306-1.39.306-2.682 0-3.577-.306-.894-.918-1.59-2.04-2.285h-6.12c-1.224.696-1.836 1.391-2.04 2.285ZM38.037 57.628H23.963c-1.326 0-2.346.994-2.346 2.186V62h18.766v-2.186c0-1.192-1.02-2.186-2.346-2.186ZM45.279 2.286H33.346C33.346 1.094 32.326.1 31 .1s-2.346.994-2.346 2.186H16.721L10.5 27.622c.816-.496 1.632-.993 2.652-.993 1.428 0 2.244.795 2.958 1.39.713.597 1.223.796 1.427.796.306 0 .816-.298 1.53-.795.714-.497 1.632-1.391 2.958-1.391 1.326 0 2.244.795 2.958 1.39.713.498 1.223.796 1.53.796.101 0 .305-.1.611-.199.204-.1.51-.397.918-.596.51-.398 1.122-.994 2.04-1.192.306-.1.612-.1.918-.1 1.326 0 2.244.795 2.958 1.391.714.497 1.224.795 1.53.795.306 0 .816-.298 1.427-.795.714-.596 1.632-1.39 2.958-1.39 1.428 0 2.244.794 2.958 1.39.306.298.612.497.918.596.204.1.408.2.612.2.306 0 .816-.299 1.428-.895.713-.596 1.631-1.391 2.957-1.391 1.02 0 1.836.497 2.652.993l-6.12-25.336ZM34.468 53.157H27.43c-.714 0-1.122.497-1.122 1.093s.51 1.093 1.122 1.093h7.038c.714 0 1.121-.497 1.121-1.093.102-.596-.407-1.093-1.121-1.093Z"></path><path d="M31 28.814c-.102 0-.306.1-.612.199-.204.1-.408.298-.612.397v3.677h2.346V29.51c-.51-.398-.918-.696-1.122-.696Z"></path></svg><svg id="lego" viewBox="0 0 62 62"><path d="M1 45.23 28.4 61.5V37.65L1 21.28v23.95Zm51.3-32.04v2.56c0 1.84-3.5 3.38-7.7 3.38-4.3 0-7.7-1.54-7.7-3.38v-4.2c.3 1.74 3.6 3.18 7.7 3.18 4.3 0 7.7-1.54 7.7-3.38 0-1.84-3.5-3.38-7.7-3.38h-1L38.6 5v3.18c0 1.84-3.5 3.37-7.7 3.37-2.7 0-5-.61-6.4-1.53-.2-.2-.4-.41-.7-.62-.4-.4-.6-.81-.6-1.22V5.1l-4.8 2.86h-1.1c-4.3 0-7.7 1.54-7.7 3.38 0 1.84 3.5 3.38 7.7 3.38 4.1 0 7.4-1.44 7.7-3.18v4.2c0 1.84-3.5 3.38-7.7 3.38-4.3 0-7.7-1.54-7.7-3.38v-2.46l-6 3.59 27.5 16.37 27.4-16.27-6.2-3.79ZM38.7 23.63c0 1.84-3.5 3.38-7.7 3.38-4.3 0-7.7-1.54-7.7-3.38v-4.2c.3 1.74 3.6 3.18 7.7 3.18s7.4-1.44 7.7-3.18v4.2Zm-5.1 14.23V61.5L61 45.23V21.58L33.6 37.86Zm-2.7-30.6c4.3 0 7.7-1.54 7.7-3.38C38.6 2.04 35.1.5 30.9.5c-4.3 0-7.7 1.54-7.7 3.38 0 1.84 3.4 3.38 7.7 3.38Z"></path></svg><svg id="mail" viewBox="0 0 32 32"><path d="M28 5H4C1.8 5 0 6.8 0 9v14c0 2.2 1.8 4 4 4h24c2.2 0 4-1.8 4-4V9c0-2.2-1.8-4-4-4ZM2 10.3l7 5.3-7 5.3V10.3Zm28 12.2c0 1.1-.9 2.5-2 2.5H4c-1.1 0-2-1.4-2-2.5l7.8-6.4 4.4 3.3a3 3 0 0 0 3.6 0l4.4-3.3 7.8 6.4Zm0-1.7-7-5.3 7-5.3v10.6Zm-12.8-2.2c-.4.3-.8.4-1.2.4-.4 0-.9-.1-1.2-.4l-4.1-3.1-.8-.6L2 9c0-1.1.9-2 2-2h24a2 2 0 0 1 2 2l-12.8 9.6Z"></path></svg><svg id="money" viewBox="0 0 56 56"><path d="M47.566 14.5H8.433c-2.218 0-3.933 1.681-3.933 3.857v19.286c0 2.176 1.715 3.857 3.933 3.857h39.133c2.22 0 3.934-1.681 3.934-3.857V18.357c0-2.077-1.816-3.857-3.934-3.857ZM7.526 39.225V17.27H48.07v21.956H7.526Z"></path><path d="M11.46 35.368h32.677V21.127H11.46v14.241ZM28 23.006c2.925 0 5.346 2.373 5.346 5.241 0 2.869-2.421 5.242-5.346 5.242-2.925 0-5.346-2.373-5.346-5.242 0-2.967 2.421-5.241 5.346-5.241Z"></path></svg><svg id="phone" viewBox="0 0 32 32"><path d="M20.94 28h-1.11c-4.939-.593-8.568-2.864-11.189-5.728-2.62-2.864-4.738-6.519-5.141-11.556V9.333c.1-.888.504-1.481 1.109-2.074.605-.69 1.613-1.481 2.52-1.58.706 0 1.815.494 2.218 1.087.403.493.605 1.58.806 2.37.202.889.605 1.975.504 2.765-.201 1.185-1.814 1.68-2.217 2.568 1.612 3.655 4.133 6.42 7.56 8.198.806-.494 1.613-1.877 2.823-1.877.403 0 1.008.198 1.41.297.505.098.908.296 1.311.493.706.297 2.017.593 2.42 1.186.403.592.705 1.58.605 2.172-.303 1.284-2.42 2.667-3.63 3.062ZM16.1 5.481c5.948 0 10.888 4.741 10.888 10.667H28.5C28.5 9.432 22.956 4 16.1 4v1.481Z"></path><path d="M16.1 13.185v1.58c.807 0 1.412.593 1.412 1.383h1.613c0-1.58-1.31-2.963-3.024-2.963ZM16.1 10.124c3.327 0 6.15 2.666 6.15 6.024h1.613c0-4.148-3.427-7.506-7.661-7.506v1.482H16.1Z"></path></svg><svg id="play" viewBox="0 0 110 110"><path d="M102.249 34.3359s-.913-7.0912-3.8532-10.2315c-3.6501-4.0521-7.8071-4.1534-9.6322-4.356-13.4851-1.013-33.7634-1.013-33.7634-1.013h-.1014s-20.2783 0-33.7634 1.013c-1.9265.2026-5.9821.3039-9.6322 4.356-2.839 3.1403-3.8529 10.2315-3.8529 10.2315s-.9125 8.3068-.9125 16.6135v7.8003c0 8.3067.9125 16.6135.9125 16.6135s.9125 7.0912 3.8529 10.2315c3.6501 4.0521 8.5169 3.9508 10.6461 4.356 7.7058.8104 32.8509 1.0131 32.8509 1.0131s20.2783 0 33.7634-1.0131c1.9265-.2026 5.9821-.3039 9.6322-4.356 2.8392-3.1403 3.8532-10.2315 3.8532-10.2315s.912-8.3068.912-16.6135v-7.8003c0-8.3067-.912-16.6135-.912-16.6135Z" fill="#63D1BB"></path><path d="M54.8986 93.8c-1.0139 0-25.3479-.3039-33.0537-1.013h-.2028c-.3041-.1013-.7097-.1013-1.1152-.2026-2.5348-.3039-7.3003-.9117-10.9504-5.0651-3.4473-3.6469-4.4612-10.9407-4.5626-11.7511C5.014 75.4643 4 67.1575 4 58.8508v-7.8003c0-8.408.9125-16.6135.9125-16.9174v-.1013c.1014-.8105 1.2167-8.0029 4.5627-11.7511 4.0556-4.4573 8.6182-4.9638 10.8489-5.1664.2027 0 .4055 0 .5069-.1013h.1014C34.4175 16 54.6958 16 54.8986 16H55c.2028 0 20.4811 0 33.9662 1.013h.1014c.2028 0 .3042 0 .5069.1013 2.2307.2026 6.7933.7091 10.8485 5.1664 3.448 3.6469 4.462 10.9406 4.563 11.7511 0 .3039 1.014 8.6107 1.014 17.0187v7.8003c0 8.408-.913 16.6135-1.014 16.9174v.1013c-.101.8105-1.217 8.1042-4.563 11.7511-4.0552 4.4573-8.6178 4.9638-10.8485 5.1664-.2027 0-.4055 0-.5069.1013h-.1014C75.4811 93.8 55.1014 93.8 54.8986 93.8Zm-32.3439-6.4833c7.6044.7091 31.6342 1.013 32.4453 1.013.7098 0 20.3797 0 33.4593-1.013.2027 0 .4055 0 .6083-.1013 1.825-.2026 4.664-.5065 7.3002-3.343 1.825-2.026 2.9404-6.9899 3.1431-8.712.1014-.5065.9121-8.5094.9121-16.3096v-7.8003c0-7.9015-.9121-15.8031-1.0135-16.3096-.3041-2.4313-1.4194-6.8886-3.1431-8.6107-2.6362-2.9378-5.4751-3.1404-7.3002-3.343-.2028 0-.4056 0-.6083-.1013-13.2823-1.013-33.2565-1.013-33.4593-1.013h-.1014c-.2028 0-20.2783 0-33.4592 1.013-.2028 0-.4056 0-.6084.1013-1.825.2026-4.664.5066-7.3002 3.343-1.825 2.0261-2.9403 6.9899-3.1431 8.712-.1014.6078-.9125 8.5093-.9125 16.3096v7.8003c0 7.8002.9125 15.8031.9125 16.3096.3042 2.4313 1.4195 6.8886 3.1431 8.6107 2.3321 2.6339 5.3738 3.039 7.6044 3.343.6084-.1013 1.0139 0 1.5209.1013Z" fill="#fff"></path><path d="M42.8337 36.767v36.1648L73.0484 54.9 42.8337 36.767Z" fill="#fff"></path></svg><svg id="rocket" viewBox="0 0 56 56"><path d="M41.447 22.25a47.822 47.822 0 0 0-12.537-1.685c-2.932 0-5.56.198-7.785.595L14.25 16.5H.601l5.864 6.147h8.493c-4.651 1.586-6.875 3.47-6.875 3.47v3.767s2.325 1.883 6.976 3.47H6.364L.5 39.5h13.649l6.875-4.66c2.325.397 4.853.595 7.785.595 4.55 0 8.796-.694 12.537-1.685-1.214-1.785-1.921-3.668-1.921-5.85.1-1.982.91-3.865 2.022-5.65ZM44.985 23.241c-1.314 1.586-2.022 3.173-2.022 4.759 0 1.586.708 3.172 2.022 4.758C51.455 30.578 55.5 28 55.5 28s-4.044-2.578-10.515-4.759Z"></path></svg><svg id="search" viewBox="0 0 22 22"><path d="m19.693 18.057-3.477-3.477c1.023-1.33 1.534-2.966 1.534-4.705C17.75 5.477 14.273 2 9.875 2S2 5.477 2 9.875s3.477 7.875 7.875 7.875c1.739 0 3.375-.614 4.704-1.534l3.478 3.477c.204.205.409.307.818.307.614 0 1.125-.511 1.125-1.125 0-.204-.102-.511-.307-.818ZM4.25 9.875c0-3.068 2.557-5.625 5.625-5.625S15.5 6.807 15.5 9.875 12.943 15.5 9.875 15.5 4.25 12.943 4.25 9.875Z"></path></svg><svg viewBox="0 0 50 21" preserveAspectRatio="none" id="sin"><path d="m0 4c12.5 0 12.5 13 25 13s12.5-13 25-13" stroke="#f1f1f1" stroke-width="8" fill="none"></path></svg><svg viewBox="0 0 2000 2000" id="stack"></svg><svg id="thread-ball" viewBox="0 0 56 56"><path d="M10.806 24.953a16.041 16.041 0 0 0 0 6.233l4.176-3.166-4.176-3.067ZM35.352 12.586c-4.889-2.177-10.593-2.177-15.583.396l7.639 5.54 7.944-5.936ZM45.028 24.062l-4.889 3.66 4.99 3.66c.51-2.373.51-4.946-.101-7.32ZM19.87 43.057c4.89 2.473 10.899 2.671 15.991.099l-8.25-6.035-7.74 5.936ZM18.546 25.249l-6.314-4.551c-.306.692-.612 1.385-.815 2.078l5.398 3.957 1.731-1.484ZM29.445 35.835l8.453 6.134c.306-.198.611-.396.815-.594.306-.198.611-.495.917-.791l-8.454-6.134-1.731 1.385ZM22.111 22.578l-7.537-5.441c-.51.494-.917 1.088-1.324 1.682l7.028 5.144 1.833-1.385ZM33.01 33.163l8.25 6.035c.509-.494.916-1.088 1.324-1.681l-7.843-5.739-1.732 1.386ZM25.676 19.907l-7.843-5.738c-.203.099-.407.297-.61.396-.408.296-.816.593-1.121.989l7.843 5.639 1.731-1.286ZM36.574 30.394l7.13 5.144c.306-.692.611-1.286.917-1.979l-6.213-4.55-1.834 1.385ZM37.39 13.674 11.416 33.362c.203.692.509 1.385.815 2.077l26.99-20.479c-.509-.494-1.12-.89-1.833-1.286ZM41.769 17.532c-.306-.395-.611-.791-.917-1.088l-27.5 20.776c.204.494.51.89.815 1.187.101.198.305.396.407.495l27.704-20.776c-.204-.198-.306-.396-.51-.594ZM43.398 19.907 16.204 40.484c.509.495 1.12.99 1.731 1.386l26.482-19.985c-.306-.692-.611-1.385-1.019-1.978Z"></path></svg><svg viewBox="0 0 50 32" preserveAspectRatio="none" id="wave"><path d="M50 32V0C37.5 0 37.5 13 25 13C12.5 13 12.5 0 0 0V32" fill="#fff"></path></svg><svg id="social_tg" viewBox="0 0 28 28"><path fill-rule="evenodd" clip-rule="evenodd" d="M23.202 6.247c.178.15.264.382.226.612l-2.626 15.757a.657.657 0 0 1-1.012.438l-7.878-5.252a.657.657 0 0 1-.149-.956l2.61-3.264-4.359 2.907a.656.656 0 0 1-.658.04l-5.252-2.625a.656.656 0 0 1 .073-1.206L22.56 6.133a.657.657 0 0 1 .642.114Zm-17.135 7.17 3.536 1.768 7.561-5.041a.657.657 0 0 1 .877.956l-4.805 6.007 6.438 4.291 2.275-13.653-15.882 5.672Z"></path></svg><svg id="social_vk" viewBox="0 0 28 28"><path d="M.741 8.433c0-.855.515-1.316 1.545-1.383l3.97.025a.52.52 0 0 1 .533.377c.409 1.258.866 2.343 1.372 3.257.506.914 1.168 1.966 1.985 3.156.071.151.186.226.346.226.125 0 .222-.058.293-.175l.08-.277.027-4.35c0-.303-.075-.504-.226-.604-.151-.1-.431-.176-.84-.227-.32-.05-.48-.234-.48-.553 0-.067.01-.117.027-.15.373-1.09 1.44-1.635 3.198-1.635l1.492-.026c.675 0 1.234.16 1.678.478.444.319.666.822.666 1.51v5.708a.63.63 0 0 0 .347.126c.266 0 .497-.151.692-.453 1.954-2.582 3.011-4.309 3.17-5.18 0-.017.019-.06.054-.126.124-.252.329-.47.613-.654.284-.185.533-.31.746-.377a.555.555 0 0 1 .24-.05h4.13l.266.024c.355 0 .63.16.826.478.07.1.12.21.146.327.027.117.045.235.054.352.009.118.013.185.013.201v.176c-.124.688-.44 1.421-.946 2.2-.506.78-1.15 1.623-1.931 2.528-.782.906-1.27 1.5-1.466 1.786-.16.2-.24.385-.24.553 0 .134.071.285.213.453l3.89 4.627c.213.268.32.562.32.88 0 .386-.16.704-.48.956-.32.251-.701.394-1.145.427l-.453.025h-4.05a.861.861 0 0 0-.106.013.864.864 0 0 1-.107.012c-.39 0-.755-.159-1.092-.477-.125-.134-.96-1.124-2.505-2.968a1.385 1.385 0 0 0-.373-.327c-.07.268-.164.654-.28 1.157-.115.503-.2.864-.253 1.082l-.08.427c-.177.587-.55.939-1.119 1.056l-.373.025h-2.61c-1.475 0-2.945-.637-4.41-1.91-1.466-1.275-2.784-2.922-3.957-4.942-1.172-2.02-2.264-4.372-3.277-7.054a1.916 1.916 0 0 1-.133-.73Zm16.013 6.514c-.373 0-.71-.097-1.013-.29-.302-.192-.453-.457-.453-.792V8.081c0-.335-.089-.574-.266-.717-.178-.142-.489-.213-.933-.213l-1.518.05c-.764 0-1.341.126-1.732.377.781.352 1.172.922 1.172 1.71v4.426a1.5 1.5 0 0 1-.533 1.044 1.59 1.59 0 0 1-1.066.415c-.532 0-.94-.243-1.225-.73C7.8 12.466 6.77 10.589 6.097 8.81l-.24-.653-3.544-.026c-.231 0-.36.013-.386.038-.027.025-.04.097-.04.214 0 .15.017.31.053.478l.56 1.408c1.491 3.638 3.112 6.505 4.862 8.6 1.75 2.096 3.468 3.144 5.155 3.144h2.665c.106 0 .186-.03.24-.088.053-.059.097-.172.133-.34l.053-.25.506-2.214c.142-.302.267-.503.373-.603a.975.975 0 0 1 .693-.277c.426 0 .861.243 1.305.73l2.265 2.715c.142.218.293.327.453.327h4.396c.533 0 .8-.126.8-.377a.466.466 0 0 0-.08-.252l-3.864-4.551c-.302-.352-.453-.73-.453-1.132 0-.402.142-.788.427-1.157.23-.335.679-.893 1.345-1.672a37.682 37.682 0 0 0 1.745-2.188c.498-.679.826-1.295.986-1.848l.08-.327a.371.371 0 0 1-.027-.164.572.572 0 0 0-.026-.188h-4.183c-.267.1-.48.251-.64.452l-.16.478c-.444 1.157-1.607 2.942-3.49 5.357a1.892 1.892 0 0 1-1.305.503Z"></path></svg><svg id="social_yt" viewBox="0 0 28 28"><path d="m17.592 13.887-5.236-3.49a.654.654 0 0 0-1.015.545v6.982a.654.654 0 0 0 1.014.545l5.237-3.49a.654.654 0 0 0 0-1.092Zm-4.942 2.815v-4.538l3.404 2.269-3.404 2.269Zm12.48-8.564a2.4 2.4 0 0 0-1.45-1.636c-3.72-1.43-9.688-1.407-9.939-1.407-.25 0-6.218-.022-9.938 1.407a2.4 2.4 0 0 0-1.451 1.636c-.284 1.07-.611 3.033-.611 6.295s.327 5.225.61 6.294a2.4 2.4 0 0 0 1.452 1.637c3.72 1.429 9.687 1.407 9.938 1.407h.076c.753 0 6.317-.044 9.862-1.407a2.4 2.4 0 0 0 1.451-1.637c.284-1.069.611-3.032.611-6.294 0-3.262-.327-5.226-.61-6.295ZM23.865 20.4a1.091 1.091 0 0 1-.655.742c-3.49 1.342-9.404 1.32-9.469 1.32-.066 0-5.978.022-9.47-1.32a1.091 1.091 0 0 1-.654-.742c-.261-1.004-.567-2.847-.567-5.967 0-3.12.306-4.964.567-5.968a1.09 1.09 0 0 1 .655-.741c3.49-1.342 9.404-1.32 9.469-1.32.065 0 5.978-.022 9.47 1.32a1.092 1.092 0 0 1 .654.741c.261 1.004.567 2.848.567 5.968s-.306 4.963-.567 5.967Z"></path></svg></svg>