<svg viewBox="0 0 22 22" fill="none" xmlns="http://www.w3.org/2000/svg"><path d="M20.688 8.857h-3.55l-3.45-6.476c-.203-.381-.608-.476-1.014-.286s-.507.572-.304.953l3.145 5.81H6.283l3.145-5.81c.202-.381 0-.762-.305-.953-.406-.19-.811 0-1.014.286l-3.45 6.476H1.312c-.406 0-.812.286-.812.762 0 .381.304.762.812.762h.202l.914 2.857c-.203.095-.305.286-.305.572 0 .38.305.666.71.666L4.558 20h12.884l1.725-5.524c.405 0 .71-.286.71-.667 0-.19-.102-.476-.304-.57l.912-2.858h.203c.406 0 .812-.286.812-.762 0-.476-.406-.762-.812-.762Zm-4.565 9.62H5.573L4.354 14.38h13.087l-1.319 4.095Zm1.623-5.525H3.848l-.812-2.666h15.522l-.812 2.666Z"/></svg>
