<svg viewBox="0 0 56 56" fill="none" xmlns="http://www.w3.org/2000/svg"><path d="M28 47c9.075 0 16.5-7.355 16.5-16.344C35.425 30.656 28 37.909 28 47ZM16.244 25.65c0 2.554 2.062 4.495 4.537 4.495.928 0 1.857-.306 2.578-.817v.306c0 2.554 2.063 4.495 4.538 4.495 2.578 0 4.537-2.043 4.537-4.495v-.306c.722.51 1.65.817 2.579.817 2.578 0 4.537-2.043 4.537-4.494 0-1.84-1.031-3.371-2.578-4.087 1.547-.715 2.578-2.247 2.578-4.085 0-2.554-2.063-4.495-4.537-4.495-.929 0-1.857.306-2.579.817v-.306C32.434 10.94 30.372 9 27.897 9c-2.578 0-4.538 2.043-4.538 4.495v.306a4.542 4.542 0 0 0-2.578-.817c-2.578 0-4.537 2.043-4.537 4.495 0 1.838 1.031 3.37 2.578 4.085-1.444.716-2.578 2.248-2.578 4.087ZM28 16.968c2.578 0 4.538 2.043 4.538 4.494 0 2.554-2.063 4.495-4.538 4.495-2.578 0-4.538-2.043-4.538-4.495 0-2.451 1.96-4.494 4.538-4.494ZM11.5 30.656C11.5 39.646 18.925 47 28 47c0-9.091-7.425-16.344-16.5-16.344Z"/></svg>
