<svg id="giftbox" viewBox="0 0 56 56" xmlns="http://www.w3.org/2000/svg"><path d="M14.527 44h12.615V30.272H14.528V44Zm28.358-23.309h-7.367c.505-.296 1.01-.493 1.413-.79 1.615-1.086 2.422-2.568 2.422-3.95 0-1.186-.605-2.173-1.413-2.865-.807-.69-1.917-1.086-3.027-1.086-1.211 0-2.422.395-3.33 1.086-1.514.988-2.624 2.47-3.432 4.05 0 .099-.1.197-.1.197-.303-.592-.606-1.185-1.01-1.777-.706-.988-1.514-1.877-2.523-2.47C23.51 12.494 22.4 12 21.188 12c-1.21 0-2.321.494-3.23 1.284-.807.79-1.412 1.877-1.412 3.062 0 .691.202 1.481.605 2.172.606.89 1.413 1.58 2.624 2.173h-6.66c-.909 0-1.615.692-1.615 1.58V28.1h15.541V20.69h1.918V28.1H44.5v-5.827c0-.89-.706-1.58-1.615-1.58ZM20.381 18.42c-.606-.395-1.01-.79-1.211-1.087-.202-.395-.303-.691-.303-.987 0-.494.202-.988.706-1.482.404-.395 1.01-.691 1.615-.691.707 0 1.413.197 2.018.691a7.6 7.6 0 0 1 2.624 3.16c.303.692.606 1.383.808 2.075-3.129-.297-5.147-.988-6.257-1.68Zm10.596-1.58c.606-.79 1.211-1.482 1.918-1.877.706-.494 1.412-.691 2.018-.691.605 0 1.11.197 1.514.493.403.297.605.692.605 1.186 0 .493-.303 1.284-1.514 2.074-1.11.79-3.128 1.679-6.156 2.271a10.88 10.88 0 0 1 1.615-3.456ZM28.96 44h12.614V30.272H28.96V44Z"/></svg>
