<svg id="lego" viewBox="0 0 62 62" xmlns="http://www.w3.org/2000/svg"><path d="M1 45.23 28.4 61.5V37.65L1 21.28v23.95Zm51.3-32.04v2.56c0 1.84-3.5 3.38-7.7 3.38-4.3 0-7.7-1.54-7.7-3.38v-4.2c.3 1.74 3.6 3.18 7.7 3.18 4.3 0 7.7-1.54 7.7-3.38 0-1.84-3.5-3.38-7.7-3.38h-1L38.6 5v3.18c0 1.84-3.5 3.37-7.7 3.37-2.7 0-5-.61-6.4-1.53-.2-.2-.4-.41-.7-.62-.4-.4-.6-.81-.6-1.22V5.1l-4.8 2.86h-1.1c-4.3 0-7.7 1.54-7.7 3.38 0 1.84 3.5 3.38 7.7 3.38 4.1 0 7.4-1.44 7.7-3.18v4.2c0 1.84-3.5 3.38-7.7 3.38-4.3 0-7.7-1.54-7.7-3.38v-2.46l-6 3.59 27.5 16.37 27.4-16.27-6.2-3.79ZM38.7 23.63c0 1.84-3.5 3.38-7.7 3.38-4.3 0-7.7-1.54-7.7-3.38v-4.2c.3 1.74 3.6 3.18 7.7 3.18s7.4-1.44 7.7-3.18v4.2Zm-5.1 14.23V61.5L61 45.23V21.58L33.6 37.86Zm-2.7-30.6c4.3 0 7.7-1.54 7.7-3.38C38.6 2.04 35.1.5 30.9.5c-4.3 0-7.7 1.54-7.7 3.38 0 1.84 3.4 3.38 7.7 3.38Z"/></svg>
