<svg viewBox="0 0 56 56" fill="none" xmlns="http://www.w3.org/2000/svg"><path d="M47.566 14.5H8.433c-2.218 0-3.933 1.681-3.933 3.857v19.286c0 2.176 1.715 3.857 3.933 3.857h39.133c2.22 0 3.934-1.681 3.934-3.857V18.357c0-2.077-1.816-3.857-3.934-3.857ZM7.526 39.225V17.27H48.07v21.956H7.526Z" fill="#63D1BB"/><path d="M11.46 35.368h32.677V21.127H11.46v14.241ZM28 23.006c2.925 0 5.346 2.373 5.346 5.241 0 2.869-2.421 5.242-5.346 5.242-2.925 0-5.346-2.373-5.346-5.242 0-2.967 2.421-5.241 5.346-5.241Z"/></svg>
