<svg id="play" viewBox="0 0 110 110" xmlns="http://www.w3.org/2000/svg"><path d="M102.249 34.3359s-.913-7.0912-3.8532-10.2315c-3.6501-4.0521-7.8071-4.1534-9.6322-4.356-13.4851-1.013-33.7634-1.013-33.7634-1.013h-.1014s-20.2783 0-33.7634 1.013c-1.9265.2026-5.9821.3039-9.6322 4.356-2.839 3.1403-3.8529 10.2315-3.8529 10.2315s-.9125 8.3068-.9125 16.6135v7.8003c0 8.3067.9125 16.6135.9125 16.6135s.9125 7.0912 3.8529 10.2315c3.6501 4.0521 8.5169 3.9508 10.6461 4.356 7.7058.8104 32.8509 1.0131 32.8509 1.0131s20.2783 0 33.7634-1.0131c1.9265-.2026 5.9821-.3039 9.6322-4.356 2.8392-3.1403 3.8532-10.2315 3.8532-10.2315s.912-8.3068.912-16.6135v-7.8003c0-8.3067-.912-16.6135-.912-16.6135Z" fill="#63D1BB"/><path d="M54.8986 93.8c-1.0139 0-25.3479-.3039-33.0537-1.013h-.2028c-.3041-.1013-.7097-.1013-1.1152-.2026-2.5348-.3039-7.3003-.9117-10.9504-5.0651-3.4473-3.6469-4.4612-10.9407-4.5626-11.7511C5.014 75.4643 4 67.1575 4 58.8508v-7.8003c0-8.408.9125-16.6135.9125-16.9174v-.1013c.1014-.8105 1.2167-8.0029 4.5627-11.7511 4.0556-4.4573 8.6182-4.9638 10.8489-5.1664.2027 0 .4055 0 .5069-.1013h.1014C34.4175 16 54.6958 16 54.8986 16H55c.2028 0 20.4811 0 33.9662 1.013h.1014c.2028 0 .3042 0 .5069.1013 2.2307.2026 6.7933.7091 10.8485 5.1664 3.448 3.6469 4.462 10.9406 4.563 11.7511 0 .3039 1.014 8.6107 1.014 17.0187v7.8003c0 8.408-.913 16.6135-1.014 16.9174v.1013c-.101.8105-1.217 8.1042-4.563 11.7511-4.0552 4.4573-8.6178 4.9638-10.8485 5.1664-.2027 0-.4055 0-.5069.1013h-.1014C75.4811 93.8 55.1014 93.8 54.8986 93.8Zm-32.3439-6.4833c7.6044.7091 31.6342 1.013 32.4453 1.013.7098 0 20.3797 0 33.4593-1.013.2027 0 .4055 0 .6083-.1013 1.825-.2026 4.664-.5065 7.3002-3.343 1.825-2.026 2.9404-6.9899 3.1431-8.712.1014-.5065.9121-8.5094.9121-16.3096v-7.8003c0-7.9015-.9121-15.8031-1.0135-16.3096-.3041-2.4313-1.4194-6.8886-3.1431-8.6107-2.6362-2.9378-5.4751-3.1404-7.3002-3.343-.2028 0-.4056 0-.6083-.1013-13.2823-1.013-33.2565-1.013-33.4593-1.013h-.1014c-.2028 0-20.2783 0-33.4592 1.013-.2028 0-.4056 0-.6084.1013-1.825.2026-4.664.5066-7.3002 3.343-1.825 2.0261-2.9403 6.9899-3.1431 8.712-.1014.6078-.9125 8.5093-.9125 16.3096v7.8003c0 7.8002.9125 15.8031.9125 16.3096.3042 2.4313 1.4195 6.8886 3.1431 8.6107 2.3321 2.6339 5.3738 3.039 7.6044 3.343.6084-.1013 1.0139 0 1.5209.1013Z" fill="#fff"/><path d="M42.8337 36.767v36.1648L73.0484 54.9 42.8337 36.767Z" fill="#fff"/></svg>
