<svg id="rocket" viewBox="0 0 56 56" xmlns="http://www.w3.org/2000/svg"><path d="M41.447 22.25a47.822 47.822 0 0 0-12.537-1.685c-2.932 0-5.56.198-7.785.595L14.25 16.5H.601l5.864 6.147h8.493c-4.651 1.586-6.875 3.47-6.875 3.47v3.767s2.325 1.883 6.976 3.47H6.364L.5 39.5h13.649l6.875-4.66c2.325.397 4.853.595 7.785.595 4.55 0 8.796-.694 12.537-1.685-1.214-1.785-1.921-3.668-1.921-5.85.1-1.982.91-3.865 2.022-5.65ZM44.985 23.241c-1.314 1.586-2.022 3.173-2.022 4.759 0 1.586.708 3.172 2.022 4.758C51.455 30.578 55.5 28 55.5 28s-4.044-2.578-10.515-4.759Z"/></svg>
