<svg viewBox="0 0 56 56" fill="none" xmlns="http://www.w3.org/2000/svg"><path d="M10.806 24.953a16.041 16.041 0 0 0 0 6.233l4.176-3.166-4.176-3.067ZM35.352 12.586c-4.889-2.177-10.593-2.177-15.583.396l7.639 5.54 7.944-5.936ZM45.028 24.062l-4.889 3.66 4.99 3.66c.51-2.373.51-4.946-.101-7.32ZM19.87 43.057c4.89 2.473 10.899 2.671 15.991.099l-8.25-6.035-7.74 5.936ZM18.546 25.249l-6.314-4.551c-.306.692-.612 1.385-.815 2.078l5.398 3.957 1.731-1.484ZM29.445 35.835l8.453 6.134c.306-.198.611-.396.815-.594.306-.198.611-.495.917-.791l-8.454-6.134-1.731 1.385ZM22.111 22.578l-7.537-5.441c-.51.494-.917 1.088-1.324 1.682l7.028 5.144 1.833-1.385ZM33.01 33.163l8.25 6.035c.509-.494.916-1.088 1.324-1.681l-7.843-5.739-1.732 1.386ZM25.676 19.907l-7.843-5.738c-.203.099-.407.297-.61.396-.408.296-.816.593-1.121.989l7.843 5.639 1.731-1.286ZM36.574 30.394l7.13 5.144c.306-.692.611-1.286.917-1.979l-6.213-4.55-1.834 1.385ZM37.39 13.674 11.416 33.362c.203.692.509 1.385.815 2.077l26.99-20.479c-.509-.494-1.12-.89-1.833-1.286ZM41.769 17.532c-.306-.395-.611-.791-.917-1.088l-27.5 20.776c.204.494.51.89.815 1.187.101.198.305.396.407.495l27.704-20.776c-.204-.198-.306-.396-.51-.594ZM43.398 19.907 16.204 40.484c.509.495 1.12.99 1.731 1.386l26.482-19.985c-.306-.692-.611-1.385-1.019-1.978Z"/></svg>
